{
  "asset": {
    "version": "2.0",
    "generator": "Created using the official Cinema 4D glTF Exporter 1.000x284978"
  },
  "scenes": [{
    "nodes": [
      0
    ]
  }],
  "nodes": [{
    "name": "LEFT",
    "translation": [
      -1.6171711683273315,
      -0.47634708881378174,
      -0.006510114297270775
    ],
    "rotation": [
      0.7071067690849304,
      0,
      0,
      -0.7071067690849304
    ],
    "scale": [
      1,
      1,
      1
    ],
    "mesh": 0
  }],
  "meshes": [{
    "name": "LEFT",
    "primitives": [{
      "attributes": {
        "POSITION": 1,
        "TEXCOORD_0": 2
      },
      "indices": 0,
      "material": 0
    }]
  }],
  "accessors": [{
      "bufferView": 0,
      "type": "SCALAR",
      "componentType": 5123,
      "max": [
        143
      ],
      "count": 144,
      "byteOffset": 0,
      "min": [
        0
      ]
    },
    {
      "bufferView": 1,
      "type": "VEC3",
      "componentType": 5126,
      "max": [
        1.16659414768219,
        0.6779404282569885,
        1.4267045259475708
      ],
      "count": 145,
      "byteOffset": 0,
      "min": [
        -0.025730758905410767,
        -0.6943455338478088,
        -0.30409055948257446
      ]
    },
    {
      "bufferView": 1,
      "type": "VEC2",
      "componentType": 5126,
      "max": [
        0.9983745813369751,
        0
      ],
      "count": 145,
      "byteOffset": 12,
      "min": [
        0,
        -0.9500995874404907
      ]
    }
  ],
  "bufferViews": [{
      "buffer": 0,
      "byteOffset": 0,
      "byteLength": 288,
      "target": 34963
    },
    {
      "buffer": 0,
      "byteOffset": 288,
      "byteLength": 2900,
      "target": 34962,
      "byteStride": 20
    }
  ],
  "buffers": [{
    "uri": "data:application/octet-stream;base64,",
    "byteLength": 3188
  }],
  "images": [{
    "uri": "data:image/jpeg;base64,"
  }],
  "samplers": [{
    "magFilter": 9729,
    "minFilter": 9729,
    "wrapS": 10497,
    "wrapT": 10497
  }],
  "textures": [{
    "sampler": 0,
    "source": 0
  }],
  "materials": [{
    "doubleSided": true,
    "pbrMetallicRoughness": {
      "baseColorTexture": {
        "index": 0
      },
      "baseColorFactor": [
        0.5879999995231628,
        0.5879999995231628,
        0.5879999995231628,
        1
      ],
      "metallicFactor": 1,
      "roughnessFactor": 1
    },
    "emissiveFactor": [
      0,
      0,
      0
    ],
    "alphaMode": "OPAQUE",
    "name": "c"
  }]
}
