{
	"asset":{
		"version":"2.0",
		"generator":"Created using the official Cinema 4D glTF Exporter 1.000x284978"
	},
	"scenes":[{
		"nodes":[0]
	}],
	"nodes":[{
		"name":"Sphere",
		"translation":[0.00048164703184738755,
		2.309311866760254,
		0.0],
		"rotation":[0.0,
		-0.06953065097332001,
		0.0,
		0.99757981300354],
		"scale":[1.0,
		1.0,
		1.0],
		"mesh":0
	}],
	"meshes":[{
		"name":"Sphere",
		"primitives":[{
			"attributes":{
				"POSITION":1,
				"TEXCOORD_0":2
			},
			"indices":0,
			"material":0
		}]
	}],
	"accessors":[{
		"bufferView":0,
		"type":"SCALAR",
		"componentType":5123,
		"count":540,
		"byteOffset":0,
		"min":[0],
		"max":[123]
	},
	{
		"bufferView":1,
		"type":"VEC3",
		"componentType":5126,
		"count":124,
		"byteOffset":0,
		"min":[-2.3812835216522219,
		-1.6087828874588013,
		-1.6087828874588013],
		"max":[0.8362823128700256,
		1.6087828874588013,
		1.6087828874588013]
	},
	{
		"bufferView":1,
		"type":"VEC2",
		"componentType":5126,
		"count":124,
		"byteOffset":12,
		"min":[0.0,
		0.0],
		"max":[1.0,
		0.8659999370574951]
	}],
	"bufferViews":[{
		"buffer":0,
		"byteOffset":0,
		"byteLength":1080,
		"target":34963
	},
	{
		"buffer":0,
		"byteOffset":1080,
		"byteLength":2480,
		"target":34962,
		"byteStride":20
	}],
	"buffers":[{
		"uri":"data:application/octet-stream;base64,",
		"byteLength":3560
	}],
	"materials":[{
		"pbrMetallicRoughness":{
			"baseColorFactor":[0.059999999999999987,
			0.3569999999999998,
			0.6,
			0.54],
			"metallicFactor":1.0,
			"roughnessFactor":1.0
		},
		"emissiveFactor":[0.0,
		0.0,
		0.0],
		"alphaMode":"BLEND",
		"doubleSided":true,
		"name":"Mat.2"
	}]
}