{
	"asset":{
		"version":"2.0",
		"generator":"Created using the official Cinema 4D glTF Exporter 1.000x284978"
	},
	"accessors":[{
		"bufferView":0,
		"type":"SCALAR",
		"componentType":5123,
		"max":[1287],
		"count":4968,
		"byteOffset":0,
		"min":[0]
	},
	{
		"bufferView":1,
		"type":"VEC3",
		"componentType":5126,
		"max":[0.37403014302253725,
		-0.12266422808170319,
		2.0844762325286867],
		"count":1288,
		"byteOffset":0,
		"min":[-3.022698402404785,
		-2.444693088531494,
		0.2602383494377136]
	},
	{
		"bufferView":1,
		"type":"VEC2",
		"componentType":5126,
		"max":[1.0,
		1.0],
		"count":1288,
		"byteOffset":12,
		"min":[0.0,
		0.0]
	},
	{
		"bufferView":2,
		"type":"SCALAR",
		"componentType":5123,
		"max":[150],
		"count":672,
		"byteOffset":0,
		"min":[0]
	},
	{
		"bufferView":3,
		"type":"VEC3",
		"componentType":5126,
		"max":[-0.02443813346326351,
		-0.13487325608730317,
		1.889661431312561],
		"count":151,
		"byteOffset":0,
		"min":[-0.13335934281349183,
		-0.24399501085281373,
		1.7807402610778809]
	},
	{
		"bufferView":3,
		"type":"VEC2",
		"componentType":5126,
		"max":[1.0,
		1.0],
		"count":151,
		"byteOffset":12,
		"min":[0.0,
		0.0]
	},
	{
		"bufferView":4,
		"type":"SCALAR",
		"componentType":5123,
		"max":[1767],
		"count":8832,
		"byteOffset":0,
		"min":[0]
	},
	{
		"bufferView":5,
		"type":"VEC3",
		"componentType":5126,
		"max":[1.2506648302078248,
		-0.11412527412176132,
		4.229796886444092],
		"count":1768,
		"byteOffset":0,
		"min":[-3.055339813232422,
		-0.2541252672672272,
		-0.07620757073163986]
	},
	{
		"bufferView":5,
		"type":"VEC2",
		"componentType":5126,
		"max":[1.0,
		1.0],
		"count":1768,
		"byteOffset":12,
		"min":[0.0,
		0.0]
	},
	{
		"bufferView":6,
		"type":"SCALAR",
		"componentType":5123,
		"max":[9576],
		"count":36360,
		"byteOffset":0,
		"min":[0]
	},
	{
		"bufferView":7,
		"type":"VEC3",
		"componentType":5126,
		"max":[0.09185047447681427,
		0.7560040354728699,
		3.560849905014038],
		"count":9577,
		"byteOffset":0,
		"min":[-3.095095157623291,
		-2.499598741531372,
		0.1218675896525383]
	},
	{
		"bufferView":7,
		"type":"VEC2",
		"componentType":5126,
		"max":[1.0,
		1.0],
		"count":9577,
		"byteOffset":12,
		"min":[0.0,
		0.0]
	},
	{
		"bufferView":8,
		"type":"SCALAR",
		"componentType":5123,
		"max":[262],
		"count":1020,
		"byteOffset":0,
		"min":[0]
	},
	{
		"bufferView":9,
		"type":"VEC3",
		"componentType":5126,
		"max":[-0.831030011177063,
		1.6735783815383912,
		2.3080496788024904],
		"count":263,
		"byteOffset":0,
		"min":[-0.971030056476593,
		-2.468120813369751,
		2.0074806213378908]
	},
	{
		"bufferView":9,
		"type":"VEC2",
		"componentType":5126,
		"max":[1.0,
		1.0],
		"count":263,
		"byteOffset":12,
		"min":[0.0,
		0.0]
	},
	{
		"bufferView":10,
		"type":"SCALAR",
		"componentType":5123,
		"max":[421],
		"count":1716,
		"byteOffset":0,
		"min":[0]
	},
	{
		"bufferView":11,
		"type":"VEC3",
		"componentType":5126,
		"max":[3.241955280303955,
		-0.13487325608730317,
		2.238175392150879],
		"count":422,
		"byteOffset":0,
		"min":[-2.3709897994995119,
		-2.5394070148468019,
		0.45029550790786745]
	},
	{
		"bufferView":11,
		"type":"VEC2",
		"componentType":5126,
		"max":[1.0,
		1.0],
		"count":422,
		"byteOffset":12,
		"min":[0.0,
		0.0]
	},
	{
		"bufferView":12,
		"type":"SCALAR",
		"componentType":5123,
		"max":[402],
		"count":1440,
		"byteOffset":0,
		"min":[0]
	},
	{
		"bufferView":13,
		"type":"VEC3",
		"componentType":5126,
		"max":[-0.76023930311203,
		-2.242591381072998,
		2.0761942863464357],
		"count":403,
		"byteOffset":0,
		"min":[-0.971030056476593,
		-2.5394070148468019,
		-2.065505027770996]
	},
	{
		"bufferView":13,
		"type":"VEC2",
		"componentType":5126,
		"max":[1.0,
		1.0],
		"count":403,
		"byteOffset":12,
		"min":[0.0,
		0.0]
	},
	{
		"bufferView":14,
		"type":"SCALAR",
		"componentType":5123,
		"max":[123],
		"count":540,
		"byteOffset":0,
		"min":[0]
	},
	{
		"bufferView":15,
		"type":"VEC3",
		"componentType":5126,
		"max":[-0.026374898850917817,
		1.4486876726150513,
		3.5699408054351808],
		"count":124,
		"byteOffset":0,
		"min":[-3.3047842979431154,
		-1.7688781023025513,
		0.36811795830726626]
	},
	{
		"bufferView":15,
		"type":"VEC2",
		"componentType":5126,
		"max":[1.0,
		0.8659999370574951],
		"count":124,
		"byteOffset":12,
		"min":[0.0,
		0.0]
	}],
	"scenes":[{
		"nodes":[0]
	}],
	"meshes":[{
		"name":"y-Mat",
		"primitives":[{
			"attributes":{
				"POSITION":1,
				"TEXCOORD_0":2
			},
			"indices":0,
			"material":0
		}]
	},
	{
		"name":"y-Mat",
		"primitives":[{
			"attributes":{
				"POSITION":4,
				"TEXCOORD_0":5
			},
			"indices":3,
			"material":1
		}]
	},
	{
		"name":"y-Mat",
		"primitives":[{
			"attributes":{
				"POSITION":7,
				"TEXCOORD_0":8
			},
			"indices":6,
			"material":2
		}]
	},
	{
		"name":"y-Mat.3",
		"primitives":[{
			"attributes":{
				"POSITION":10,
				"TEXCOORD_0":11
			},
			"indices":9,
			"material":3
		}]
	},
	{
		"name":"y-Mat",
		"primitives":[{
			"attributes":{
				"POSITION":13,
				"TEXCOORD_0":14
			},
			"indices":12,
			"material":4
		}]
	},
	{
		"name":"y-Mat",
		"primitives":[{
			"attributes":{
				"POSITION":16,
				"TEXCOORD_0":17
			},
			"indices":15,
			"material":5
		}]
	},
	{
		"name":"y-Mat",
		"primitives":[{
			"attributes":{
				"POSITION":19,
				"TEXCOORD_0":20
			},
			"indices":18,
			"material":6
		}]
	},
	{
		"name":"y-Mat.4",
		"primitives":[{
			"attributes":{
				"POSITION":22,
				"TEXCOORD_0":23
			},
			"indices":21,
			"material":7
		}]
	}],
	"nodes":[{
		"name":"y",
		"translation":[0.9010300040245056,
		2.469407081604004,
		-2.0761942863464357],
		"rotation":[0.09825675934553147,
		-0.1784094125032425,
		0.017908254638314248,
		0.9788743257522583],
		"scale":[1.0,
		1.0,
		1.0],
		"children":[1,
		2,
		3,
		4,
		5,
		6,
		7,
		8]
	},
	{
		"name":"y-Mat",
		"mesh":0
	},
	{
		"name":"y-Mat",
		"mesh":1
	},
	{
		"name":"y-Mat",
		"mesh":2
	},
	{
		"name":"y-Mat.3",
		"mesh":3
	},
	{
		"name":"y-Mat",
		"mesh":4
	},
	{
		"name":"y-Mat",
		"mesh":5
	},
	{
		"name":"y-Mat",
		"mesh":6
	},
	{
		"name":"y-Mat.4",
		"mesh":7
	}],
	"bufferViews":[{
		"buffer":0,
		"byteOffset":0,
		"byteLength":9936,
		"target":34963
	},
	{
		"buffer":0,
		"byteOffset":9936,
		"byteLength":25760,
		"target":34962,
		"byteStride":20
	},
	{
		"buffer":1,
		"byteOffset":0,
		"byteLength":1344,
		"target":34963
	},
	{
		"buffer":1,
		"byteOffset":1344,
		"byteLength":3020,
		"target":34962,
		"byteStride":20
	},
	{
		"buffer":2,
		"byteOffset":0,
		"byteLength":17664,
		"target":34963
	},
	{
		"buffer":2,
		"byteOffset":17664,
		"byteLength":35360,
		"target":34962,
		"byteStride":20
	},
	{
		"buffer":3,
		"byteOffset":0,
		"byteLength":72720,
		"target":34963
	},
	{
		"buffer":3,
		"byteOffset":72720,
		"byteLength":191540,
		"target":34962,
		"byteStride":20
	},
	{
		"buffer":4,
		"byteOffset":0,
		"byteLength":2040,
		"target":34963
	},
	{
		"buffer":4,
		"byteOffset":2040,
		"byteLength":5260,
		"target":34962,
		"byteStride":20
	},
	{
		"buffer":5,
		"byteOffset":0,
		"byteLength":3432,
		"target":34963
	},
	{
		"buffer":5,
		"byteOffset":3432,
		"byteLength":8440,
		"target":34962,
		"byteStride":20
	},
	{
		"buffer":6,
		"byteOffset":0,
		"byteLength":2880,
		"target":34963
	},
	{
		"buffer":6,
		"byteOffset":2880,
		"byteLength":8060,
		"target":34962,
		"byteStride":20
	},
	{
		"buffer":7,
		"byteOffset":0,
		"byteLength":1080,
		"target":34963
	},
	{
		"buffer":7,
		"byteOffset":1080,
		"byteLength":2480,
		"target":34962,
		"byteStride":20
	}],
	"buffers":[{
		"uri":"data:application/octet-stream;base64,",
		"byteLength":35696
	},
	{
		"uri":"data:application/octet-stream;base64,",
		"byteLength":4364
	},
	{
		"uri":"data:application/octet-stream;base64,",
		"byteLength":53024
	},
	{
		"uri":"data:application/octet-stream;base64,",
		"byteLength":264260
	},
	{
		"uri":"data:application/octet-stream;base64,",
		"byteLength":7300
	},
	{
		"uri":"data:application/octet-stream;base64,",
		"byteLength":11872
	},
	{
		"uri":"data:application/octet-stream;base64,",
		"byteLength":10940
	},
	{
		"uri":"data:application/octet-stream;base64,",
		"byteLength":3560
	}],
	"materials":[{
		"pbrMetallicRoughness":{
			"baseColorFactor":[0.0,
			1.0,
			0.7333333333333334,
			1.0],
			"metallicFactor":1.0,
			"roughnessFactor":1.0
		},
		"emissiveFactor":[0.0,
		0.0,
		0.0],
		"alphaMode":"OPAQUE",
		"doubleSided":true,
		"name":"Mat"
	},
	{
		"pbrMetallicRoughness":{
			"baseColorFactor":[1.0,
			0.0,
			0.833333333333333,
			1.0],
			"metallicFactor":1.0,
			"roughnessFactor":1.0
		},
		"emissiveFactor":[0.0,
		0.0,
		0.0],
		"alphaMode":"OPAQUE",
		"doubleSided":true,
		"name":"Mat"
	},
	{
		"pbrMetallicRoughness":{
			"baseColorFactor":[1.0,
			0.7833333333333334,
			0.0,
			1.0],
			"metallicFactor":1.0,
			"roughnessFactor":1.0
		},
		"emissiveFactor":[0.0,
		0.0,
		0.0],
		"alphaMode":"OPAQUE",
		"doubleSided":true,
		"name":"Mat"
	},
	{
		"pbrMetallicRoughness":{
			"baseColorFactor":[1.0,
			1.0,
			1.0,
			1.0],
			"metallicFactor":1.0,
			"roughnessFactor":1.0
		},
		"emissiveFactor":[0.0,
		0.0,
		0.0],
		"alphaMode":"OPAQUE",
		"doubleSided":true,
		"name":"Mat.3"
	},
	{
		"pbrMetallicRoughness":{
			"baseColorFactor":[0.0,
			1.0,
			0.0,
			1.0],
			"metallicFactor":1.0,
			"roughnessFactor":1.0
		},
		"emissiveFactor":[0.0,
		0.0,
		0.0],
		"alphaMode":"OPAQUE",
		"doubleSided":true,
		"name":"Mat"
	},
	{
		"pbrMetallicRoughness":{
			"baseColorFactor":[1.0,
			0.0,
			0.0,
			1.0],
			"metallicFactor":1.0,
			"roughnessFactor":1.0
		},
		"emissiveFactor":[0.0,
		0.0,
		0.0],
		"alphaMode":"OPAQUE",
		"doubleSided":true,
		"name":"Mat"
	},
	{
		"pbrMetallicRoughness":{
			"baseColorFactor":[0.0,
			0.2999999999999998,
			1.0,
			1.0],
			"metallicFactor":1.0,
			"roughnessFactor":1.0
		},
		"emissiveFactor":[0.0,
		0.0,
		0.0],
		"alphaMode":"OPAQUE",
		"doubleSided":true,
		"name":"Mat"
	},
	{
		"pbrMetallicRoughness":{
			"baseColorFactor":[1.0,
			1.0,
			1.0,
			0.0],
			"metallicFactor":1.0,
			"roughnessFactor":1.0
		},
		"emissiveFactor":[0.0,
		0.0,
		0.0],
		"alphaMode":"BLEND",
		"doubleSided":true,
		"name":"Mat.4"
	}]
}